<mxfile host="Electron" modified="2024-04-15T22:47:14.138Z" agent="Mozilla/5.0 (Windows NT 10.0; Win64; x64) AppleWebKit/537.36 (KHTML, like Gecko) draw.io/24.0.4 Chrome/120.0.6099.109 Electron/28.1.0 Safari/537.36" etag="1rVB_GKrPsZXDsJkqROF" version="24.0.4" type="device">
  <diagram name="第 1 页" id="DpJjNBeBC1oNQxyfcNkW">
    <mxGraphModel dx="1232" dy="598" grid="1" gridSize="10" guides="1" tooltips="1" connect="1" arrows="1" fold="1" page="1" pageScale="1" pageWidth="827" pageHeight="1169" math="0" shadow="0">
      <root>
        <mxCell id="0" />
        <mxCell id="1" parent="0" />
        <mxCell id="VBYXfUpZlvJmujm4IbjL-6" value="" style="edgeStyle=orthogonalEdgeStyle;rounded=0;orthogonalLoop=1;jettySize=auto;html=1;" edge="1" parent="1" source="01vmFz8C0AfW-CMswmrS-1" target="VBYXfUpZlvJmujm4IbjL-2">
          <mxGeometry relative="1" as="geometry" />
        </mxCell>
        <mxCell id="VBYXfUpZlvJmujm4IbjL-9" value="" style="edgeStyle=orthogonalEdgeStyle;rounded=0;orthogonalLoop=1;jettySize=auto;html=1;" edge="1" parent="1" source="01vmFz8C0AfW-CMswmrS-1" target="VBYXfUpZlvJmujm4IbjL-2">
          <mxGeometry relative="1" as="geometry" />
        </mxCell>
        <mxCell id="VBYXfUpZlvJmujm4IbjL-10" style="edgeStyle=orthogonalEdgeStyle;rounded=0;orthogonalLoop=1;jettySize=auto;html=1;entryX=0;entryY=0.25;entryDx=0;entryDy=0;" edge="1" parent="1" source="01vmFz8C0AfW-CMswmrS-1" target="VBYXfUpZlvJmujm4IbjL-1">
          <mxGeometry relative="1" as="geometry" />
        </mxCell>
        <mxCell id="01vmFz8C0AfW-CMswmrS-1" value="更新npm包" style="rounded=0;whiteSpace=wrap;html=1;" parent="1" vertex="1">
          <mxGeometry x="50" y="200" width="120" height="60" as="geometry" />
        </mxCell>
        <mxCell id="VBYXfUpZlvJmujm4IbjL-7" value="" style="edgeStyle=orthogonalEdgeStyle;rounded=0;orthogonalLoop=1;jettySize=auto;html=1;" edge="1" parent="1" source="VBYXfUpZlvJmujm4IbjL-1" target="VBYXfUpZlvJmujm4IbjL-4">
          <mxGeometry relative="1" as="geometry" />
        </mxCell>
        <mxCell id="VBYXfUpZlvJmujm4IbjL-1" value="自定义更新" style="rounded=0;whiteSpace=wrap;html=1;" vertex="1" parent="1">
          <mxGeometry x="294" y="50" width="120" height="60" as="geometry" />
        </mxCell>
        <mxCell id="VBYXfUpZlvJmujm4IbjL-8" value="" style="edgeStyle=orthogonalEdgeStyle;rounded=0;orthogonalLoop=1;jettySize=auto;html=1;" edge="1" parent="1" source="VBYXfUpZlvJmujm4IbjL-2" target="VBYXfUpZlvJmujm4IbjL-5">
          <mxGeometry relative="1" as="geometry" />
        </mxCell>
        <mxCell id="VBYXfUpZlvJmujm4IbjL-2" value="借助npm工具" style="rounded=0;whiteSpace=wrap;html=1;" vertex="1" parent="1">
          <mxGeometry x="290" y="200" width="120" height="60" as="geometry" />
        </mxCell>
        <mxCell id="VBYXfUpZlvJmujm4IbjL-3" value="git平台bot" style="rounded=0;whiteSpace=wrap;html=1;" vertex="1" parent="1">
          <mxGeometry x="290" y="340" width="120" height="60" as="geometry" />
        </mxCell>
        <mxCell id="VBYXfUpZlvJmujm4IbjL-4" value="npm&amp;nbsp; i&amp;nbsp; -D vue@版本" style="rounded=0;whiteSpace=wrap;html=1;" vertex="1" parent="1">
          <mxGeometry x="480" y="50" width="120" height="60" as="geometry" />
        </mxCell>
        <mxCell id="VBYXfUpZlvJmujm4IbjL-5" value="npm-check&lt;br&gt;npm-check-updates" style="rounded=0;whiteSpace=wrap;html=1;" vertex="1" parent="1">
          <mxGeometry x="490" y="200" width="120" height="60" as="geometry" />
        </mxCell>
        <mxCell id="VBYXfUpZlvJmujm4IbjL-11" style="edgeStyle=orthogonalEdgeStyle;rounded=0;orthogonalLoop=1;jettySize=auto;html=1;entryX=-0.011;entryY=0.628;entryDx=0;entryDy=0;entryPerimeter=0;" edge="1" parent="1" source="01vmFz8C0AfW-CMswmrS-1" target="VBYXfUpZlvJmujm4IbjL-3">
          <mxGeometry relative="1" as="geometry">
            <Array as="points">
              <mxPoint x="230" y="230" />
              <mxPoint x="230" y="378" />
            </Array>
          </mxGeometry>
        </mxCell>
      </root>
    </mxGraphModel>
  </diagram>
</mxfile>
